<svg xmlns="http://www.w3.org/2000/svg" width="138.012" height="32.224" viewBox="0 0 138.012 32.224">
  <g id="그룹_824" data-name="그룹 824" transform="translate(-203.798 -281.768)">
    <path id="패스_241" data-name="패스 241" d="M267.18,287.853l0,0-5.111-5.008,0,0a3.635,3.635,0,0,0-2.593-1.077,3.575,3.575,0,0,0-3.61,3.538,3.493,3.493,0,0,0,1.1,2.541l0,0,5.111,5.008,0,0a3.635,3.635,0,0,0,2.593,1.077,3.575,3.575,0,0,0,3.611-3.538A3.493,3.493,0,0,0,267.18,287.853Z" transform="translate(-42.049)" fill="#fc3"/>
    <path id="패스_242" data-name="패스 242" d="M268.187,393.191l0,0-5.014-4.913,0,0a3.566,3.566,0,0,0-2.544-1.057,3.507,3.507,0,0,0-3.542,3.471,3.426,3.426,0,0,0,1.078,2.492l0,0,5.015,4.913,0,0a3.566,3.566,0,0,0,2.544,1.056,3.507,3.507,0,0,0,3.542-3.471A3.426,3.426,0,0,0,268.187,393.191Z" transform="translate(-43.036 -85.162)"/>
    <path id="패스_243" data-name="패스 243" d="M209.9,335.735l0,0-5.023,4.979,0,0a3.491,3.491,0,0,0-1.08,2.526,3.554,3.554,0,0,0,6.1,2.446l0,0,5.023-4.979,0,0a3.49,3.49,0,0,0,1.08-2.525,3.554,3.554,0,0,0-6.1-2.447Z" transform="translate(0 -42.718)" fill="#fc3"/>
    <path id="패스_244" data-name="패스 244" d="M315.687,335.735l0,0-5.023,4.979,0,0a3.491,3.491,0,0,0-1.08,2.526,3.554,3.554,0,0,0,6.1,2.446l0,0,5.023-4.979,0,0a3.491,3.491,0,0,0,1.08-2.525,3.554,3.554,0,0,0-6.1-2.447Z" transform="translate(-85.431 -42.718)" fill="#fc3"/>
    <path id="패스_245" data-name="패스 245" d="M554.761,293.628l1.168-.012V315.6l12.931.093v5.81l-18.854,0V298.57C550.006,295.776,553.12,293.706,554.761,293.628Z" transform="translate(-279.593 -9.568)"/>
    <path id="패스_246" data-name="패스 246" d="M820.005,313.245l-4.221,8.629h-6.537l7.508-14.231-7.06-13.56h6.537l3.772,7.807,3.773-7.807h6.537l-7.059,13.56,7.508,14.231h-6.536Z" transform="translate(-488.954 -9.945)"/>
    <g id="그룹_686" data-name="그룹 686" transform="translate(296.067 283.408)">
      <path id="패스_247" data-name="패스 247" d="M689.023,290.289h12.95v5.81h-12.7V313h12.8v5.81l-13.107.035a5.629,5.629,0,0,1-5.632-5.632V295.978A5.689,5.689,0,0,1,689.023,290.289Z" transform="translate(-683.334 -290.289)"/>
      <rect id="사각형_537" data-name="사각형 537" width="6.958" height="5.482" transform="translate(8.221 11.627)"/>
    </g>
    <g id="그룹_687" data-name="그룹 687" transform="translate(245.53 283.408)">
      <path id="패스_248" data-name="패스 248" d="M426.627,301.777V318.81h-5.939V295.978a5.689,5.689,0,0,1,5.689-5.689h12.316v5.81H426.627Z" transform="translate(-420.688 -290.289)"/>
      <rect id="사각형_538" data-name="사각형 538" width="6.958" height="5.656" transform="translate(8.187 11.544)"/>
    </g>
  </g>
</svg>
